<svg width="122" height="122" viewBox="0 0 122 122" fill="none" xmlns="http://www.w3.org/2000/svg">
<g filter="url(#filter0_d_251_370)">
<path d="M61 0C45.9394 0.182739 31.5472 6.24675 20.897 16.897C10.2467 27.5472 4.18274 41.9394 4 57C4.18274 72.0606 10.2467 86.4528 20.897 97.103C31.5472 107.753 45.9394 113.817 61 114C76.0606 113.817 90.4528 107.753 101.103 97.103C111.753 86.4528 117.817 72.0606 118 57C117.817 41.9394 111.753 27.5472 101.103 16.897C90.4528 6.24675 76.0606 0.182739 61 0ZM93.5714 61.0714H65.0714V89.5714H56.9286V61.0714H28.4286V52.9286H56.9286V24.4286H65.0714V52.9286H93.5714V61.0714Z" fill="#0E3C64"/>
<path d="M93.5714 61.5714H94.0714V61.0714V52.9286V52.4286H93.5714H65.5714V24.4286V23.9286H65.0714H56.9286H56.4286V24.4286V52.4286H28.4286H27.9286V52.9286V61.0714V61.5714H28.4286H56.4286V89.5714V90.0714H56.9286H65.0714H65.5714V89.5714V61.5714H93.5714ZM21.2505 17.2505C31.807 6.69402 46.0721 0.682747 61 0.500037C75.9279 0.682747 90.193 6.69402 100.749 17.2505C111.306 27.807 117.317 42.0721 117.5 57C117.317 71.9279 111.306 86.193 100.749 96.7495C90.193 107.306 75.9279 113.317 61 113.5C46.0721 113.317 31.807 107.306 21.2505 96.7495C10.694 86.193 4.68275 71.9279 4.50004 57C4.68275 42.0721 10.694 27.807 21.2505 17.2505Z" stroke="black"/>
</g>
<defs>
<filter id="filter0_d_251_370" x="0" y="0" width="122" height="122" filterUnits="userSpaceOnUse" color-interpolation-filters="sRGB">
<feFlood flood-opacity="0" result="BackgroundImageFix"/>
<feColorMatrix in="SourceAlpha" type="matrix" values="0 0 0 0 0 0 0 0 0 0 0 0 0 0 0 0 0 0 127 0" result="hardAlpha"/>
<feOffset dy="4"/>
<feGaussianBlur stdDeviation="2"/>
<feComposite in2="hardAlpha" operator="out"/>
<feColorMatrix type="matrix" values="0 0 0 0 0 0 0 0 0 0 0 0 0 0 0 0 0 0 0.25 0"/>
<feBlend mode="normal" in2="BackgroundImageFix" result="effect1_dropShadow_251_370"/>
<feBlend mode="normal" in="SourceGraphic" in2="effect1_dropShadow_251_370" result="shape"/>
</filter>
</defs>
</svg>
