<svg width="16" height="28" viewBox="0 0 16 28" fill="none" xmlns="http://www.w3.org/2000/svg">
<path fill-rule="evenodd" clip-rule="evenodd" d="M0.585573 15.4181C0.210631 15.043 0 14.5344 0 14.0041C0 13.4738 0.210631 12.9652 0.585573 12.5901L11.8996 1.2761C12.0841 1.08508 12.3048 0.932719 12.5488 0.827901C12.7928 0.723083 13.0552 0.66791 13.3208 0.665603C13.5863 0.663295 13.8497 0.713899 14.0955 0.814461C14.3413 0.915023 14.5646 1.06353 14.7524 1.25131C14.9401 1.4391 15.0887 1.6624 15.1892 1.9082C15.2898 2.15399 15.3404 2.41735 15.3381 2.68291C15.3358 2.94846 15.2806 3.2109 15.1758 3.45491C15.071 3.69892 14.9186 3.91961 14.7276 4.1041L4.82757 14.0041L14.7276 23.9041C15.0919 24.2813 15.2935 24.7865 15.2889 25.3109C15.2844 25.8353 15.074 26.3369 14.7032 26.7077C14.3324 27.0786 13.8308 27.2889 13.3064 27.2935C12.782 27.298 12.2768 27.0964 11.8996 26.7321L0.585573 15.4181Z" fill="black"/>
</svg>
