<svg width="12" height="16" viewBox="0 0 12 16" fill="none" xmlns="http://www.w3.org/2000/svg">
<g id="Group 90">
<path id="Vector" d="M5.99922 9.6C5.44543 9.6 4.90408 9.43578 4.44362 9.12812C3.98317 8.82045 3.62428 8.38315 3.41236 7.87151C3.20043 7.35988 3.14498 6.79689 3.25302 6.25375C3.36106 5.7106 3.62773 5.21169 4.01932 4.8201C4.41091 4.42852 4.90982 4.16184 5.45297 4.0538C5.99611 3.94576 6.5591 4.00121 7.07073 4.21314C7.58237 4.42506 8.01967 4.78395 8.32733 5.2444C8.635 5.70486 8.79922 6.24621 8.79922 6.8C8.79833 7.54233 8.50305 8.25401 7.97814 8.77892C7.45323 9.30383 6.74155 9.59911 5.99922 9.6ZM5.99922 5.12C5.66695 5.12 5.34214 5.21853 5.06586 5.40313C4.78959 5.58773 4.57426 5.85011 4.4471 6.15709C4.31995 6.46407 4.28668 6.80186 4.3515 7.12775C4.41632 7.45364 4.57633 7.75299 4.81128 7.98794C5.04623 8.22289 5.34558 8.3829 5.67147 8.44772C5.99736 8.51254 6.33515 8.47927 6.64213 8.35212C6.94911 8.22496 7.21149 8.00963 7.39609 7.73336C7.58069 7.45708 7.67922 7.13227 7.67922 6.8C7.67877 6.35457 7.50163 5.92752 7.18667 5.61255C6.8717 5.29759 6.44465 5.12045 5.99922 5.12Z" fill="white"/>
<path id="Vector_2" d="M6 16L1.39855 10.3149C1.33461 10.2295 1.27134 10.1436 1.20873 10.0571C0.422723 8.97245 -0.00189883 7.64756 6.38338e-06 6.28571C6.38338e-06 4.61864 0.632147 3.01984 1.75736 1.84104C2.88258 0.662243 4.4087 0 6 0C7.5913 0 9.11742 0.662243 10.2426 1.84104C11.3679 3.01984 12 4.61864 12 6.28571C12.0019 7.64694 11.5775 8.97123 10.7918 10.0554L10.7913 10.0571C10.7913 10.0571 10.6276 10.2823 10.6031 10.3126L6 16ZM2.07928 9.36857C2.08037 9.36857 2.20691 9.54457 2.23582 9.58229L6 14.2331L9.76909 9.576C9.79309 9.54457 9.92072 9.36743 9.92127 9.36686C10.5633 8.48064 10.9103 7.3983 10.9091 6.28571C10.9091 4.92174 10.3919 3.61364 9.47125 2.64917C8.55062 1.68469 7.30197 1.14286 6 1.14286C4.69803 1.14286 3.44938 1.68469 2.52875 2.64917C1.60812 3.61364 1.09091 4.92174 1.09091 6.28571C1.08977 7.39899 1.43661 8.48195 2.07928 9.36857Z" fill="white"/>
</g>
</svg>
