<svg width="17" height="18" viewBox="0 0 17 18" fill="none" xmlns="http://www.w3.org/2000/svg">
<path fill-rule="evenodd" clip-rule="evenodd" d="M6.96752 8.60886C6.65958 8.60886 6.41608 8.84818 6.41608 9.15085C6.41608 9.44647 6.65958 9.69283 6.96752 9.69283H11.2645V8.60898H14.1785L13.0523 7.48981C12.8411 7.27865 12.8411 6.93375 13.0523 6.72259C13.2635 6.50438 13.6084 6.50438 13.8195 6.71555L15.8749 8.76383C15.9804 8.86941 16.0368 9.00315 16.0368 9.15097C16.0368 9.29174 15.9804 9.43252 15.8749 9.53106L13.8195 11.5793C13.714 11.6849 13.5732 11.7412 13.4394 11.7412C13.2987 11.7412 13.1579 11.6849 13.0523 11.5793C12.8411 11.3682 12.8411 11.0233 13.0523 10.8121L14.1785 9.69295H11.2645V13.0574C11.2645 14.7819 9.83931 16.1896 8.07756 16.1896H4.58989C2.83531 16.1896 1.41016 14.7889 1.41016 13.0644V5.24432C1.41016 3.51278 2.84247 2.11206 4.59705 2.11206H8.09189C9.83931 2.11206 11.2645 3.51278 11.2645 5.23728V8.60886H6.96752Z" fill="#3472B8"/>
</svg>
