<svg width="18" height="14" viewBox="0 0 18 14" fill="none" xmlns="http://www.w3.org/2000/svg">
<g id="Group">
<path id="Vector" d="M1.42105 1.42105V1C1.30938 1 1.20229 1.04436 1.12332 1.12332C1.04436 1.20229 1 1.30938 1 1.42105H1.42105ZM16.5789 1.42105H17C17 1.30938 16.9556 1.20229 16.8767 1.12332C16.7977 1.04436 16.6906 1 16.5789 1V1.42105ZM1.42105 1.84211H16.5789V1H1.42105V1.84211ZM16.1579 1.42105V11.5263H17V1.42105H16.1579ZM14.8947 12.7895H3.10526V13.6316H14.8947V12.7895ZM1.84211 11.5263V1.42105H1V11.5263H1.84211ZM3.10526 12.7895C2.77025 12.7895 2.44896 12.6564 2.21208 12.4195C1.97519 12.1826 1.84211 11.8613 1.84211 11.5263H1C1 12.0847 1.2218 12.6201 1.61662 13.015C2.01143 13.4098 2.54691 13.6316 3.10526 13.6316V12.7895ZM16.1579 11.5263C16.1579 11.8613 16.0248 12.1826 15.7879 12.4195C15.551 12.6564 15.2297 12.7895 14.8947 12.7895V13.6316C15.4531 13.6316 15.9886 13.4098 16.3834 13.015C16.7782 12.6201 17 12.0847 17 11.5263H16.1579Z" fill="white"/>
<path id="Vector_2" d="M1.42188 1.42102L9.00082 8.99997L16.5798 1.42102" stroke="white" stroke-linecap="round" stroke-linejoin="round"/>
</g>
</svg>
